<svg width="73" height="73" viewBox="0 0 73 73" fill="none" xmlns="http://www.w3.org/2000/svg">
<circle cx="36.5" cy="36.5" r="36.5" fill="#00A884"/>
<path d="M49.5094 22.8095C45.9669 19.2586 41.2492 17.3055 36.2355 17.3055C25.887 17.3055 17.4661 25.7264 17.4661 36.075C17.4661 39.3807 18.3285 42.6104 19.9687 45.4597L17.3055 55.1826L27.2567 52.5701C29.996 54.0665 33.0819 54.8528 36.2271 54.8528H36.2355C46.5756 54.8528 55.1825 46.432 55.1825 36.0834C55.1825 31.0698 53.0519 26.3605 49.5094 22.8095ZM36.2355 51.6908C33.4286 51.6908 30.6808 50.9383 28.2881 49.5179L27.7217 49.1797L21.8203 50.7269L23.3929 44.9693L23.0209 44.3775C21.4567 41.8918 20.6366 39.0256 20.6366 36.075C20.6366 27.4765 27.6371 20.4761 36.244 20.4761C40.4122 20.4761 44.3267 22.0994 47.2689 25.05C50.2111 28.0007 52.0204 31.9152 52.012 36.0834C52.012 44.6903 44.834 51.6908 36.2355 51.6908ZM44.7917 40.0064C44.3267 39.7697 42.0185 38.6367 41.5874 38.4845C41.1562 38.3239 40.8433 38.2478 40.5305 38.7213C40.2177 39.1947 39.3215 40.2431 39.0425 40.5644C38.7719 40.8772 38.4929 40.9195 38.0279 40.6828C35.2717 39.3046 33.4624 38.2224 31.6446 35.1027C31.1627 34.2741 32.1266 34.3333 33.0228 32.5409C33.1749 32.2281 33.0988 31.9575 32.9805 31.7208C32.8621 31.4841 31.9236 29.1759 31.5347 28.2375C31.1543 27.3244 30.7653 27.4512 30.4779 27.4343C30.2073 27.4174 29.8945 27.4174 29.5817 27.4174C29.2689 27.4174 28.7616 27.5357 28.3304 28.0007C27.8992 28.4742 26.6902 29.6071 26.6902 31.9152C26.6902 34.2234 28.3727 36.4554 28.6009 36.7682C28.8377 37.0811 31.9067 41.8157 36.616 43.8533C39.592 45.1384 40.7588 45.2483 42.2468 45.0285C43.1515 44.8932 45.02 43.8955 45.4089 42.7964C45.7978 41.6973 45.7978 40.7589 45.6794 40.5644C45.5695 40.353 45.2567 40.2347 44.7917 40.0064Z" fill="white"/>
</svg>
